<?xml version="1.0" ?><svg height="32px" version="1.1" viewBox="0 0 32 32" width="32px" xmlns="http://www.w3.org/2000/svg" xmlns:xlink="http://www.w3.org/1999/xlink"><title/><desc/><defs/><g fill="none" fill-rule="evenodd" id="Page-1" stroke="none" stroke-width="1"><g id="number-0"><g id="Page-1" transform="translate(6.000000, 2.000000)"><path d="M14.5,14.276 C14.5,11.999 14.363,10.135 14.089,8.685 C13.816,7.236 13.355,6.14 12.708,5.4 C12.061,4.66 11.165,4.289 10.02,4.289 C8.377,4.289 7.236,5.117 6.595,6.772 C5.954,8.427 5.633,10.978 5.633,14.425 C5.633,16.765 5.77,18.681 6.044,20.175 C6.318,21.668 6.778,22.797 7.425,23.563 C8.072,24.328 8.95,24.711 10.057,24.711 C11.202,24.711 12.098,24.312 12.745,23.516 C13.392,22.72 13.847,21.581 14.108,20.1 C14.369,18.619 14.5,16.678 14.5,14.276 M19.615,14.649 C19.615,16.69 19.49,18.445 19.241,19.913 C18.992,21.382 18.532,22.713 17.86,23.908 C17.014,25.376 15.919,26.509 14.575,27.305 C13.231,28.102 11.737,28.5 10.095,28.5 C8.203,28.5 6.508,27.965 5.008,26.895 C3.508,25.824 2.379,24.344 1.62,22.452 C1.234,21.419 0.951,20.277 0.771,19.027 C0.59,17.776 0.5,16.423 0.5,14.967 C0.5,13.088 0.6,11.395 0.799,9.889 C0.998,8.384 1.309,7.089 1.732,6.007 C2.466,4.215 3.533,2.849 4.933,1.909 C6.333,0.97 8.004,0.5 9.945,0.5 C11.227,0.5 12.391,0.708 13.436,1.125 C14.481,1.542 15.399,2.152 16.189,2.955 C16.98,3.757 17.648,4.75 18.196,5.932 C19.142,7.985 19.615,10.891 19.615,14.649" fill="#2FBBF4" id="Fill-1"/><path d="M14.5,14.276 C14.5,11.999 14.363,10.135 14.089,8.685 C13.816,7.236 13.355,6.14 12.708,5.4 C12.061,4.66 11.165,4.289 10.02,4.289 C8.377,4.289 7.236,5.117 6.595,6.772 C5.954,8.427 5.633,10.978 5.633,14.425 C5.633,16.765 5.77,18.681 6.044,20.175 C6.318,21.668 6.778,22.797 7.425,23.563 C8.072,24.328 8.95,24.711 10.057,24.711 C11.202,24.711 12.098,24.312 12.745,23.516 C13.392,22.72 13.847,21.581 14.108,20.1 C14.369,18.619 14.5,16.678 14.5,14.276 L14.5,14.276 Z M19.615,14.649 C19.615,16.69 19.49,18.445 19.241,19.913 C18.992,21.382 18.532,22.713 17.86,23.908 C17.014,25.376 15.919,26.509 14.575,27.305 C13.231,28.102 11.737,28.5 10.095,28.5 C8.203,28.5 6.508,27.965 5.008,26.895 C3.508,25.824 2.379,24.344 1.62,22.452 C1.234,21.419 0.951,20.277 0.771,19.027 C0.59,17.776 0.5,16.423 0.5,14.967 C0.5,13.088 0.6,11.395 0.799,9.889 C0.998,8.384 1.309,7.089 1.732,6.007 C2.466,4.215 3.533,2.849 4.933,1.909 C6.333,0.97 8.004,0.5 9.945,0.5 C11.227,0.5 12.391,0.708 13.436,1.125 C14.481,1.542 15.399,2.152 16.189,2.955 C16.98,3.757 17.648,4.75 18.196,5.932 C19.142,7.985 19.615,10.891 19.615,14.649 L19.615,14.649 Z" id="Stroke-3" stroke="#092933" stroke-linejoin="round"/><path d="M19.1065,14.1547 C19.0865,15.9447 18.9705,17.5227 18.7485,18.8287 C18.5105,20.2337 18.0645,21.5237 17.4245,22.6627 C16.6275,24.0447 15.5825,25.1267 14.3195,25.8757 C13.0595,26.6217 11.6385,26.9997 10.0945,26.9997 C8.3185,26.9997 6.7045,26.4917 5.2985,25.4877 C3.8855,24.4787 2.8035,23.0587 2.0835,21.2657 C1.7165,20.2817 1.4395,19.1637 1.2655,17.9547 C1.1025,16.8237 1.0215,15.5787 1.0095,14.2647 C1.0065,14.4987 1.0005,14.7277 1.0005,14.9667 C1.0005,16.3947 1.0895,17.7367 1.2655,18.9547 C1.4395,20.1637 1.7165,21.2817 2.0835,22.2657 C2.8035,24.0587 3.8855,25.4787 5.2985,26.4877 C6.7045,27.4917 8.3185,27.9997 10.0945,27.9997 C11.6385,27.9997 13.0595,27.6217 14.3195,26.8757 C15.5825,26.1267 16.6275,25.0447 17.4245,23.6627 C18.0645,22.5237 18.5105,21.2337 18.7485,19.8287 C18.9915,18.3987 19.1145,16.6557 19.1145,14.6497 C19.1145,14.4797 19.1085,14.3207 19.1065,14.1547" fill="#332E09" id="Fill-5" opacity="0.203766325"/><path d="M3.1291,6.5538 C3.7451,5.0508 4.6111,3.9318 5.7691,3.1548 C6.9271,2.3778 8.2931,1.9998 9.9451,1.9998" id="Stroke-7" stroke="#FFFFFF" stroke-dasharray="1,2,6,2,3" stroke-linecap="round" stroke-linejoin="round"/></g></g></g></svg>