<?xml version="1.0" ?><svg height="32px" version="1.1" viewBox="0 0 32 32" width="32px" xmlns="http://www.w3.org/2000/svg" xmlns:xlink="http://www.w3.org/1999/xlink"><title/><desc/><defs/><g fill="none" fill-rule="evenodd" id="Page-1" stroke="none" stroke-width="1"><g id="number-3"><g id="Page-1" transform="translate(6.000000, 2.000000)"><path d="M9.1168,11.4906 C10.2628,11.4906 11.2508,11.1546 12.0798,10.4816 C12.9078,9.8086 13.3228,8.8426 13.3228,7.5836 C13.3228,6.6246 12.9918,5.7986 12.3318,5.1076 C11.6718,4.4156 10.7808,4.0696 9.6588,4.0696 C8.8988,4.0696 8.2728,4.1756 7.7808,4.3876 C7.2878,4.5996 6.8988,4.8796 6.6118,5.2286 C6.3258,5.5776 6.0548,6.0266 5.7988,6.5746 C5.5438,7.1226 5.3098,7.6406 5.0978,8.1266 C4.9738,8.3876 4.7488,8.5936 4.4248,8.7426 C4.1008,8.8926 3.7278,8.9676 3.3038,8.9676 C2.8048,8.9676 2.3478,8.7646 1.9298,8.3596 C1.5128,7.9546 1.3038,7.4156 1.3038,6.7426 C1.3038,6.0946 1.4998,5.4126 1.8928,4.6966 C2.2848,3.9796 2.8578,3.2976 3.6118,2.6496 C4.3658,2.0016 5.3038,1.4816 6.4248,1.0886 C7.5468,0.6966 8.7988,0.4996 10.1818,0.4996 C11.3908,0.4996 12.4938,0.6646 13.4908,0.9956 C14.4878,1.3256 15.3538,1.8026 16.0888,2.4256 C16.8238,3.0486 17.3788,3.7706 17.7528,4.5936 C18.1258,5.4156 18.3128,6.3006 18.3128,7.2476 C18.3128,8.4936 18.0418,9.5626 17.4998,10.4536 C16.9578,11.3446 16.1818,12.2136 15.1728,13.0606 C16.1448,13.5836 16.9638,14.1826 17.6308,14.8546 C18.2978,15.5276 18.7988,16.2726 19.1358,17.0886 C19.4718,17.9046 19.6398,18.7866 19.6398,19.7336 C19.6398,20.8676 19.4128,21.9646 18.9578,23.0236 C18.5028,24.0826 17.8338,25.0266 16.9488,25.8546 C16.0638,26.6836 15.0138,27.3316 13.7988,27.7986 C12.5838,28.2666 11.2418,28.4996 9.7708,28.4996 C8.2758,28.4996 6.9358,28.2316 5.7528,27.6966 C4.5688,27.1606 3.5938,26.4906 2.8268,25.6866 C2.0608,24.8836 1.4808,24.0516 1.0888,23.1916 C0.6958,22.3316 0.4998,21.6216 0.4998,21.0606 C0.4998,20.3376 0.7338,19.7556 1.2008,19.3126 C1.6678,18.8706 2.2508,18.6496 2.9488,18.6496 C3.2978,18.6496 3.6338,18.7526 3.9578,18.9576 C4.2818,19.1636 4.4938,19.4096 4.5938,19.6966 C5.2418,21.4286 5.9358,22.7146 6.6778,23.5556 C7.4188,24.3976 8.4628,24.8176 9.8088,24.8176 C10.5808,24.8176 11.3258,24.6276 12.0418,24.2476 C12.7588,23.8676 13.3508,23.3036 13.8178,22.5556 C14.2848,21.8086 14.5188,20.9426 14.5188,19.9576 C14.5188,18.4996 14.1198,17.3566 13.3228,16.5276 C12.5248,15.6996 11.4158,15.2846 9.9958,15.2846 C9.7458,15.2846 9.3598,15.3096 8.8368,15.3596 C8.3128,15.4096 7.9768,15.4346 7.8268,15.4346 C7.1418,15.4346 6.6118,15.2636 6.2378,14.9206 C5.8648,14.5776 5.6778,14.1016 5.6778,13.4906 C5.6778,12.8926 5.9018,12.4096 6.3508,12.0416 C6.7988,11.6746 7.4658,11.4906 8.3508,11.4906 L9.1168,11.4906 Z" fill="#2FBBF4" id="Fill-1"/><path d="M9.1168,11.4906 C10.2628,11.4906 11.2508,11.1546 12.0798,10.4816 C12.9078,9.8086 13.3228,8.8426 13.3228,7.5836 C13.3228,6.6246 12.9918,5.7986 12.3318,5.1076 C11.6718,4.4156 10.7808,4.0696 9.6588,4.0696 C8.8988,4.0696 8.2728,4.1756 7.7808,4.3876 C7.2878,4.5996 6.8988,4.8796 6.6118,5.2286 C6.3258,5.5776 6.0548,6.0266 5.7988,6.5746 C5.5438,7.1226 5.3098,7.6406 5.0978,8.1266 C4.9738,8.3876 4.7488,8.5936 4.4248,8.7426 C4.1008,8.8926 3.7278,8.9676 3.3038,8.9676 C2.8048,8.9676 2.3478,8.7646 1.9298,8.3596 C1.5128,7.9546 1.3038,7.4156 1.3038,6.7426 C1.3038,6.0946 1.4998,5.4126 1.8928,4.6966 C2.2848,3.9796 2.8578,3.2976 3.6118,2.6496 C4.3658,2.0016 5.3038,1.4816 6.4248,1.0886 C7.5468,0.6966 8.7988,0.4996 10.1818,0.4996 C11.3908,0.4996 12.4938,0.6646 13.4908,0.9956 C14.4878,1.3256 15.3538,1.8026 16.0888,2.4256 C16.8238,3.0486 17.3788,3.7706 17.7528,4.5936 C18.1258,5.4156 18.3128,6.3006 18.3128,7.2476 C18.3128,8.4936 18.0418,9.5626 17.4998,10.4536 C16.9578,11.3446 16.1818,12.2136 15.1728,13.0606 C16.1448,13.5836 16.9638,14.1826 17.6308,14.8546 C18.2978,15.5276 18.7988,16.2726 19.1358,17.0886 C19.4718,17.9046 19.6398,18.7866 19.6398,19.7336 C19.6398,20.8676 19.4128,21.9646 18.9578,23.0236 C18.5028,24.0826 17.8338,25.0266 16.9488,25.8546 C16.0638,26.6836 15.0138,27.3316 13.7988,27.7986 C12.5838,28.2666 11.2418,28.4996 9.7708,28.4996 C8.2758,28.4996 6.9358,28.2316 5.7528,27.6966 C4.5688,27.1606 3.5938,26.4906 2.8268,25.6866 C2.0608,24.8836 1.4808,24.0516 1.0888,23.1916 C0.6958,22.3316 0.4998,21.6216 0.4998,21.0606 C0.4998,20.3376 0.7338,19.7556 1.2008,19.3126 C1.6678,18.8706 2.2508,18.6496 2.9488,18.6496 C3.2978,18.6496 3.6338,18.7526 3.9578,18.9576 C4.2818,19.1636 4.4938,19.4096 4.5938,19.6966 C5.2418,21.4286 5.9358,22.7146 6.6778,23.5556 C7.4188,24.3976 8.4628,24.8176 9.8088,24.8176 C10.5808,24.8176 11.3258,24.6276 12.0418,24.2476 C12.7588,23.8676 13.3508,23.3036 13.8178,22.5556 C14.2848,21.8086 14.5188,20.9426 14.5188,19.9576 C14.5188,18.4996 14.1198,17.3566 13.3228,16.5276 C12.5248,15.6996 11.4158,15.2846 9.9958,15.2846 C9.7458,15.2846 9.3598,15.3096 8.8368,15.3596 C8.3128,15.4096 7.9768,15.4346 7.8268,15.4346 C7.1418,15.4346 6.6118,15.2636 6.2378,14.9206 C5.8648,14.5776 5.6778,14.1016 5.6778,13.4906 C5.6778,12.8926 5.9018,12.4096 6.3508,12.0416 C6.7988,11.6746 7.4658,11.4906 8.3508,11.4906 L9.1168,11.4906 L9.1168,11.4906 Z" id="Stroke-3" stroke="#092933" stroke-linejoin="round"/><path d="M4.5903,3.7871 C5.1983,3.2651 5.9823,2.8331 6.9213,2.5051 C7.8773,2.1701 8.9743,2.0001 10.1823,2.0001" id="Stroke-5" stroke="#FFFFFF" stroke-dasharray="1,2,6,2,3" stroke-linecap="round" stroke-linejoin="round"/><path d="M19.1161,19.2043 C19.0611,20.1013 18.8611,20.9813 18.4981,21.8263 C18.0731,22.8163 17.4371,23.7133 16.6071,24.4903 C15.7721,25.2713 14.7671,25.8913 13.6201,26.3323 C12.4681,26.7753 11.1741,27.0003 9.7711,27.0003 C8.3531,27.0003 7.0711,26.7443 5.9591,26.2413 C4.8391,25.7333 3.9071,25.0943 3.1891,24.3413 C2.4641,23.5823 1.9111,22.7893 1.5441,21.9833 C1.2941,21.4373 1.1351,20.9633 1.0581,20.5593 C1.0231,20.7153 1.0001,20.8793 1.0001,21.0603 C1.0001,21.5473 1.1831,22.1943 1.5441,22.9833 C1.9111,23.7893 2.4641,24.5823 3.1891,25.3413 C3.9071,26.0943 4.8391,26.7333 5.9591,27.2413 C7.0711,27.7443 8.3531,28.0003 9.7711,28.0003 C11.1741,28.0003 12.4681,27.7753 13.6201,27.3323 C14.7671,26.8913 15.7721,26.2713 16.6071,25.4903 C17.4371,24.7133 18.0731,23.8163 18.4981,22.8263 C18.9241,21.8343 19.1401,20.7933 19.1401,19.7333 C19.1401,19.5543 19.1291,19.3793 19.1161,19.2043" fill="#332E09" id="Fill-7" opacity="0.203766325"/></g></g></g></svg>