<?xml version="1.0" ?><svg height="32px" version="1.1" viewBox="0 0 32 32" width="32px" xmlns="http://www.w3.org/2000/svg" xmlns:xlink="http://www.w3.org/1999/xlink"><title/><desc/><defs/><g fill="none" fill-rule="evenodd" id="Page-1" stroke="none" stroke-width="1"><g id="number-4"><g id="Page-1" transform="translate(5.000000, 2.000000)"><path d="M5.3583,18.0788 L13.3323,18.0788 L13.3323,7.3048 L5.3583,18.0788 Z M13.3323,25.6818 L13.3323,22.2328 L4.0233,22.2328 C2.8493,22.2328 1.9683,21.9668 1.3813,21.4348 C0.7933,20.9038 0.5003,20.1808 0.5003,19.2658 C0.5003,19.0308 0.5433,18.7928 0.6303,18.5518 C0.7163,18.3108 0.8463,18.0568 1.0193,17.7918 C1.1923,17.5258 1.3713,17.2688 1.5573,17.0218 C1.7423,16.7748 1.9713,16.4718 2.2433,16.1128 L12.0713,2.9658 C12.7133,2.1008 13.2423,1.4738 13.6563,1.0838 C14.0703,0.6948 14.5683,0.4998 15.1493,0.4998 C17.0283,0.4998 17.9673,1.5758 17.9673,3.7268 L17.9673,18.0788 L18.7653,18.0788 C19.7173,18.0788 20.4803,18.2088 21.0553,18.4678 C21.6303,18.7278 21.9173,19.2968 21.9173,20.1738 C21.9173,20.8908 21.6823,21.4138 21.2123,21.7408 C20.7433,22.0688 20.0383,22.2328 19.0983,22.2328 L17.9673,22.2328 L17.9673,25.6818 C17.9673,26.6338 17.7573,27.3408 17.3373,27.8048 C16.9173,28.2678 16.3543,28.4998 15.6493,28.4998 C14.9573,28.4998 14.3983,28.2618 13.9713,27.7858 C13.5453,27.3098 13.3323,26.6088 13.3323,25.6818 L13.3323,25.6818 Z" fill="#2FBBF4" id="Fill-1"/><path d="M5.3583,18.0788 L13.3323,18.0788 L13.3323,7.3048 L5.3583,18.0788 L5.3583,18.0788 Z M13.3323,25.6818 L13.3323,22.2328 L4.0233,22.2328 C2.8493,22.2328 1.9683,21.9668 1.3813,21.4348 C0.7933,20.9038 0.5003,20.1808 0.5003,19.2658 C0.5003,19.0308 0.5433,18.7928 0.6303,18.5518 C0.7163,18.3108 0.8463,18.0568 1.0193,17.7918 C1.1923,17.5258 1.3713,17.2688 1.5573,17.0218 C1.7423,16.7748 1.9713,16.4718 2.2433,16.1128 L12.0713,2.9658 C12.7133,2.1008 13.2423,1.4738 13.6563,1.0838 C14.0703,0.6948 14.5683,0.4998 15.1493,0.4998 C17.0283,0.4998 17.9673,1.5758 17.9673,3.7268 L17.9673,18.0788 L18.7653,18.0788 C19.7173,18.0788 20.4803,18.2088 21.0553,18.4678 C21.6303,18.7278 21.9173,19.2968 21.9173,20.1738 C21.9173,20.8908 21.6823,21.4138 21.2123,21.7408 C20.7433,22.0688 20.0383,22.2328 19.0983,22.2328 L17.9673,22.2328 L17.9673,25.6818 C17.9673,26.6338 17.7573,27.3408 17.3373,27.8048 C16.9173,28.2678 16.3543,28.4998 15.6493,28.4998 C14.9573,28.4998 14.3983,28.2618 13.9713,27.7858 C13.5453,27.3098 13.3323,26.6088 13.3323,25.6818 L13.3323,25.6818 Z" id="Stroke-3" stroke="#092933" stroke-linejoin="round"/><path d="M15.6496,27 C15.1016,27 14.6746,26.821 14.3436,26.452 C14.0036,26.073 13.8316,25.478 13.8316,24.682 L13.8316,25.682 C13.8316,26.478 14.0036,27.073 14.3436,27.452 C14.6746,27.821 15.1016,28 15.6496,28 C16.2116,28 16.6426,27.826 16.9666,27.469 C17.2986,27.103 17.4676,26.501 17.4676,25.682 L17.4676,24.682 C17.4676,25.501 17.2986,26.103 16.9666,26.469 C16.6426,26.826 16.2116,27 15.6496,27" fill="#332E09" id="Fill-5" opacity="0.203766325"/><path d="M12.1282,5.3555 L7.8782,10.9805" id="Stroke-7" stroke="#FFFFFF" stroke-dasharray="1,2,6,2,3" stroke-linecap="round" stroke-linejoin="round"/></g></g></g></svg>