<?xml version="1.0" ?><svg height="32px" version="1.1" viewBox="0 0 32 32" width="32px" xmlns="http://www.w3.org/2000/svg" xmlns:xlink="http://www.w3.org/1999/xlink"><title/><desc/><defs/><g fill="none" fill-rule="evenodd" id="Page-1" stroke="none" stroke-width="1"><g id="number-5"><g id="Page-1" transform="translate(6.000000, 2.000000)"><path d="M16.3837,4.9489 L7.3907,4.9489 L6.3117,11.0829 C8.1047,10.1239 9.7577,9.6439 11.2717,9.6439 C12.4837,9.6439 13.6167,9.8709 14.6707,10.3259 C15.7247,10.7799 16.6487,11.4079 17.4437,12.2089 C18.2387,13.0109 18.8637,13.9609 19.3177,15.0589 C19.7727,16.1569 19.9997,17.3369 19.9997,18.5989 C19.9997,20.4289 19.5897,22.0949 18.7687,23.5969 C17.9487,25.0989 16.7657,26.2909 15.2197,27.1749 C13.6737,28.0579 11.8907,28.4999 9.8707,28.4999 C7.6117,28.4999 5.7787,28.0839 4.3717,27.2509 C2.9647,26.4179 1.9667,25.4619 1.3807,24.3819 C0.7937,23.3029 0.4997,22.3599 0.4997,21.5519 C0.4997,21.0599 0.7047,20.5929 1.1157,20.1509 C1.5257,19.7089 2.0397,19.4889 2.6587,19.4889 C3.7187,19.4889 4.5077,20.1009 5.0247,21.3249 C5.5297,22.4479 6.2107,23.3219 7.0697,23.9469 C7.9277,24.5719 8.8867,24.8839 9.9467,24.8839 C10.9187,24.8839 11.7707,24.6319 12.5027,24.1269 C13.2347,23.6219 13.7997,22.9279 14.1967,22.0439 C14.5947,21.1609 14.7937,20.1569 14.7937,19.0339 C14.7937,17.8229 14.5787,16.7879 14.1497,15.9289 C13.7207,15.0709 13.1467,14.4309 12.4267,14.0079 C11.7077,13.5849 10.9057,13.3739 10.0227,13.3739 C8.9377,13.3739 8.1607,13.5059 7.6937,13.7709 C7.2267,14.0359 6.5547,14.4999 5.6777,15.1629 C4.8007,15.8249 4.0777,16.1569 3.5097,16.1569 C2.8917,16.1569 2.3427,15.9329 1.8627,15.4849 C1.3837,15.0359 1.1437,14.5279 1.1437,13.9609 C1.1437,13.8969 1.2127,13.4679 1.3517,12.6729 L2.9417,3.6049 C3.1187,2.5189 3.4467,1.7309 3.9267,1.2379 C4.4067,0.7459 5.1887,0.4999 6.2737,0.4999 L16.2697,0.4999 C18.2387,0.4999 19.2237,1.2509 19.2237,2.7529 C19.2237,3.4089 18.9837,3.9389 18.5037,4.3429 C18.0247,4.7469 17.3177,4.9489 16.3837,4.9489" fill="#2FBBF4" id="Fill-1"/><path d="M16.3837,4.9489 L7.3907,4.9489 L6.3117,11.0829 C8.1047,10.1239 9.7577,9.6439 11.2717,9.6439 C12.4837,9.6439 13.6167,9.8709 14.6707,10.3259 C15.7247,10.7799 16.6487,11.4079 17.4437,12.2089 C18.2387,13.0109 18.8637,13.9609 19.3177,15.0589 C19.7727,16.1569 19.9997,17.3369 19.9997,18.5989 C19.9997,20.4289 19.5897,22.0949 18.7687,23.5969 C17.9487,25.0989 16.7657,26.2909 15.2197,27.1749 C13.6737,28.0579 11.8907,28.4999 9.8707,28.4999 C7.6117,28.4999 5.7787,28.0839 4.3717,27.2509 C2.9647,26.4179 1.9667,25.4619 1.3807,24.3819 C0.7937,23.3029 0.4997,22.3599 0.4997,21.5519 C0.4997,21.0599 0.7047,20.5929 1.1157,20.1509 C1.5257,19.7089 2.0397,19.4889 2.6587,19.4889 C3.7187,19.4889 4.5077,20.1009 5.0247,21.3249 C5.5297,22.4479 6.2107,23.3219 7.0697,23.9469 C7.9277,24.5719 8.8867,24.8839 9.9467,24.8839 C10.9187,24.8839 11.7707,24.6319 12.5027,24.1269 C13.2347,23.6219 13.7997,22.9279 14.1967,22.0439 C14.5947,21.1609 14.7937,20.1569 14.7937,19.0339 C14.7937,17.8229 14.5787,16.7879 14.1497,15.9289 C13.7207,15.0709 13.1467,14.4309 12.4267,14.0079 C11.7077,13.5849 10.9057,13.3739 10.0227,13.3739 C8.9377,13.3739 8.1607,13.5059 7.6937,13.7709 C7.2267,14.0359 6.5547,14.4999 5.6777,15.1629 C4.8007,15.8249 4.0777,16.1569 3.5097,16.1569 C2.8917,16.1569 2.3427,15.9329 1.8627,15.4849 C1.3837,15.0359 1.1437,14.5279 1.1437,13.9609 C1.1437,13.8969 1.2127,13.4679 1.3517,12.6729 L2.9417,3.6049 C3.1187,2.5189 3.4467,1.7309 3.9267,1.2379 C4.4067,0.7459 5.1887,0.4999 6.2737,0.4999 L16.2697,0.4999 C18.2387,0.4999 19.2237,1.2509 19.2237,2.7529 C19.2237,3.4089 18.9837,3.9389 18.5037,4.3429 C18.0247,4.7469 17.3177,4.9489 16.3837,4.9489 L16.3837,4.9489 Z" id="Stroke-3" stroke="#092933" stroke-linejoin="round"/><path d="M19.474,18.0427 C19.412,19.6067 19.039,21.0597 18.331,22.3577 C17.559,23.7687 16.429,24.9077 14.971,25.7407 C13.509,26.5757 11.794,26.9997 9.871,26.9997 C7.713,26.9997 5.948,26.6037 4.627,25.8207 C3.304,25.0377 2.36,24.1377 1.82,23.1437 C1.424,22.4157 1.174,21.7577 1.065,21.1757 C1.026,21.2997 1,21.4247 1,21.5517 C1,22.2717 1.276,23.1437 1.82,24.1437 C2.36,25.1377 3.304,26.0377 4.627,26.8207 C5.948,27.6037 7.713,27.9997 9.871,27.9997 C11.794,27.9997 13.509,27.5757 14.971,26.7407 C16.429,25.9077 17.559,24.7687 18.331,23.3577 C19.106,21.9367 19.5,20.3357 19.5,18.5987 C19.5,18.4107 19.485,18.2277 19.474,18.0427" fill="#332E09" id="Fill-5" opacity="0.203766325"/><path d="M7.9196,1.8242 L16.0756,1.8242" id="Stroke-7" stroke="#FFFFFF" stroke-dasharray="1,2,6,2,3" stroke-linecap="round" stroke-linejoin="round"/></g></g></g></svg>