<?xml version="1.0" ?><svg height="32px" version="1.1" viewBox="0 0 32 32" width="32px" xmlns="http://www.w3.org/2000/svg" xmlns:xlink="http://www.w3.org/1999/xlink"><title/><desc/><defs/><g fill="none" fill-rule="evenodd" id="Page-1" stroke="none" stroke-width="1"><g id="number-6"><g id="Page-1" transform="translate(6.000000, 2.000000)"><path d="M10.7107,24.8227 C11.9677,24.8227 13.0067,24.3097 13.8277,23.2827 C14.6497,22.2557 15.0597,20.9087 15.0597,19.2417 C15.0597,18.1087 14.8667,17.1347 14.4817,16.3197 C14.0957,15.5047 13.5667,14.8827 12.8947,14.4537 C12.2227,14.0237 11.4827,13.8097 10.6737,13.8097 C9.9017,13.8097 9.1647,14.0147 8.4617,14.4257 C7.7587,14.8357 7.1917,15.4307 6.7627,16.2077 C6.3337,16.9857 6.1187,17.8977 6.1187,18.9427 C6.1187,20.6227 6.5547,22.0227 7.4257,23.1427 C8.2967,24.2627 9.3917,24.8227 10.7107,24.8227 M5.6707,13.2307 C6.5167,12.2227 7.4377,11.4757 8.4337,10.9907 C9.4287,10.5057 10.5427,10.2627 11.7747,10.2627 C12.9567,10.2627 14.0487,10.4837 15.0507,10.9257 C16.0527,11.3667 16.9297,11.9957 17.6827,12.8107 C18.4357,13.6257 19.0177,14.5867 19.4277,15.6947 C19.8387,16.8027 20.0437,17.9597 20.0437,19.1667 C20.0437,20.9217 19.6427,22.5147 18.8397,23.9457 C18.0377,25.3767 16.9177,26.4937 15.4797,27.2957 C14.0427,28.0987 12.4157,28.4997 10.5987,28.4997 C8.5077,28.4997 6.7037,27.9897 5.1857,26.9697 C3.6667,25.9487 2.5067,24.4397 1.7037,22.4427 C0.9017,20.4457 0.4997,18.0027 0.4997,15.1157 C0.4997,12.7637 0.7427,10.6607 1.2277,8.8067 C1.7137,6.9527 2.4107,5.4157 3.3187,4.1957 C4.2267,2.9767 5.3287,2.0557 6.6227,1.4337 C7.9167,0.8107 9.3917,0.4997 11.0467,0.4997 C12.6397,0.4997 14.0427,0.8107 15.2557,1.4337 C16.4697,2.0557 17.3837,2.8267 17.9997,3.7477 C18.6157,4.6687 18.9237,5.5527 18.9237,6.3987 C18.9237,6.9087 18.7307,7.3727 18.3457,7.7897 C17.9597,8.2067 17.4677,8.4147 16.8707,8.4147 C16.3477,8.4147 15.8627,8.2497 15.4147,7.9197 C14.9667,7.5907 14.6367,7.1327 14.4257,6.5477 C14.1387,5.8017 13.6847,5.2007 13.0627,4.7467 C12.4407,4.2927 11.7187,4.0657 10.8977,4.0657 C10.2377,4.0657 9.5817,4.2547 8.9277,4.6347 C8.2747,5.0147 7.7237,5.5277 7.2757,6.1747 C6.3677,7.4937 5.8327,9.8457 5.6707,13.2307" fill="#2FBBF4" id="Fill-1"/><path d="M10.7107,24.8227 C11.9677,24.8227 13.0067,24.3097 13.8277,23.2827 C14.6497,22.2557 15.0597,20.9087 15.0597,19.2417 C15.0597,18.1087 14.8667,17.1347 14.4817,16.3197 C14.0957,15.5047 13.5667,14.8827 12.8947,14.4537 C12.2227,14.0237 11.4827,13.8097 10.6737,13.8097 C9.9017,13.8097 9.1647,14.0147 8.4617,14.4257 C7.7587,14.8357 7.1917,15.4307 6.7627,16.2077 C6.3337,16.9857 6.1187,17.8977 6.1187,18.9427 C6.1187,20.6227 6.5547,22.0227 7.4257,23.1427 C8.2967,24.2627 9.3917,24.8227 10.7107,24.8227 L10.7107,24.8227 Z M5.6707,13.2307 C6.5167,12.2227 7.4377,11.4757 8.4337,10.9907 C9.4287,10.5057 10.5427,10.2627 11.7747,10.2627 C12.9567,10.2627 14.0487,10.4837 15.0507,10.9257 C16.0527,11.3667 16.9297,11.9957 17.6827,12.8107 C18.4357,13.6257 19.0177,14.5867 19.4277,15.6947 C19.8387,16.8027 20.0437,17.9597 20.0437,19.1667 C20.0437,20.9217 19.6427,22.5147 18.8397,23.9457 C18.0377,25.3767 16.9177,26.4937 15.4797,27.2957 C14.0427,28.0987 12.4157,28.4997 10.5987,28.4997 C8.5077,28.4997 6.7037,27.9897 5.1857,26.9697 C3.6667,25.9487 2.5067,24.4397 1.7037,22.4427 C0.9017,20.4457 0.4997,18.0027 0.4997,15.1157 C0.4997,12.7637 0.7427,10.6607 1.2277,8.8067 C1.7137,6.9527 2.4107,5.4157 3.3187,4.1957 C4.2267,2.9767 5.3287,2.0557 6.6227,1.4337 C7.9167,0.8107 9.3917,0.4997 11.0467,0.4997 C12.6397,0.4997 14.0427,0.8107 15.2557,1.4337 C16.4697,2.0557 17.3837,2.8267 17.9997,3.7477 C18.6157,4.6687 18.9237,5.5527 18.9237,6.3987 C18.9237,6.9087 18.7307,7.3727 18.3457,7.7897 C17.9597,8.2067 17.4677,8.4147 16.8707,8.4147 C16.3477,8.4147 15.8627,8.2497 15.4147,7.9197 C14.9667,7.5907 14.6367,7.1327 14.4257,6.5477 C14.1387,5.8017 13.6847,5.2007 13.0627,4.7467 C12.4407,4.2927 11.7187,4.0657 10.8977,4.0657 C10.2377,4.0657 9.5817,4.2547 8.9277,4.6347 C8.2747,5.0147 7.7237,5.5277 7.2757,6.1747 C6.3677,7.4937 5.8327,9.8457 5.6707,13.2307 L5.6707,13.2307 Z" id="Stroke-3" stroke="#092933" stroke-linejoin="round"/><path d="M4.5215,5.0912 C5.2915,4.0602 6.1915,3.3052 7.2735,2.7842 C8.3555,2.2642 9.6255,2.0002 11.0465,2.0002" id="Stroke-5" stroke="#FFFFFF" stroke-dasharray="1,2,6,2,3" stroke-linecap="round" stroke-linejoin="round"/><path d="M19.519,18.5905 C19.458,20.0845 19.094,21.4695 18.403,22.7015 C17.65,24.0435 16.585,25.1065 15.235,25.8595 C13.881,26.6165 12.321,27.0005 10.599,27.0005 C8.619,27.0005 6.892,26.5145 5.465,25.5545 C4.038,24.5965 2.929,23.1495 2.168,21.2565 C1.433,19.4295 1.054,17.1615 1.015,14.5395 C1.012,14.7325 1,14.9185 1,15.1155 C1,17.9255 1.393,20.3285 2.168,22.2565 C2.929,24.1495 4.038,25.5965 5.465,26.5545 C6.892,27.5145 8.619,28.0005 10.599,28.0005 C12.321,28.0005 13.881,27.6165 15.235,26.8595 C16.585,26.1065 17.65,25.0435 18.403,23.7015 C19.16,22.3515 19.544,20.8265 19.544,19.1665 C19.544,18.9725 19.53,18.7815 19.519,18.5905" fill="#332E09" id="Fill-7" opacity="0.203766325"/></g></g></g></svg>