<?xml version="1.0" ?><svg height="32px" version="1.1" viewBox="0 0 32 32" width="32px" xmlns="http://www.w3.org/2000/svg" xmlns:xlink="http://www.w3.org/1999/xlink"><title/><desc/><defs/><g fill="none" fill-rule="evenodd" id="Page-1" stroke="none" stroke-width="1"><g id="number-7"><g id="Page-1" transform="translate(6.000000, 2.000000)"><path d="M3.6659,0.5 L16.2919,0.5 C17.5049,0.5 18.3829,0.69 18.9269,1.069 C19.4699,1.448 19.7419,2.073 19.7419,2.945 C19.7419,3.476 19.4229,4.178 18.7839,5.05 C18.1459,5.922 17.4199,6.885 16.6039,7.941 C15.7889,8.996 14.9489,10.307 14.0829,11.874 C13.2169,13.442 12.4239,15.356 11.7039,17.618 C11.4009,18.617 11.1859,19.445 11.0589,20.102 C10.9329,20.759 10.7939,21.612 10.6419,22.661 C10.4909,23.71 10.3579,24.513 10.2439,25.069 C9.9789,26.358 9.6029,27.252 9.1159,27.751 C8.6299,28.25 7.9819,28.5 7.1729,28.5 C6.4019,28.5 5.7829,28.231 5.3149,27.694 C4.8479,27.157 4.6139,26.364 4.6139,25.315 C4.6139,24.506 4.7839,23.407 5.1259,22.017 C5.4669,20.626 6.0229,18.961 6.7939,17.021 C7.5649,15.081 8.5289,13.091 9.6849,11.05 C10.8409,9.009 12.2159,6.977 13.8079,4.955 L3.6659,4.955 C2.6039,4.955 1.8109,4.762 1.2869,4.377 C0.7619,3.991 0.4999,3.388 0.4999,2.566 C0.4999,1.694 0.7779,1.132 1.3339,0.879 C1.8899,0.626 2.6679,0.5 3.6659,0.5" fill="#2FBBF4" id="Fill-1"/><path d="M3.6659,0.5 L16.2919,0.5 C17.5049,0.5 18.3829,0.69 18.9269,1.069 C19.4699,1.448 19.7419,2.073 19.7419,2.945 C19.7419,3.476 19.4229,4.178 18.7839,5.05 C18.1459,5.922 17.4199,6.885 16.6039,7.941 C15.7889,8.996 14.9489,10.307 14.0829,11.874 C13.2169,13.442 12.4239,15.356 11.7039,17.618 C11.4009,18.617 11.1859,19.445 11.0589,20.102 C10.9329,20.759 10.7939,21.612 10.6419,22.661 C10.4909,23.71 10.3579,24.513 10.2439,25.069 C9.9789,26.358 9.6029,27.252 9.1159,27.751 C8.6299,28.25 7.9819,28.5 7.1729,28.5 C6.4019,28.5 5.7829,28.231 5.3149,27.694 C4.8479,27.157 4.6139,26.364 4.6139,25.315 C4.6139,24.506 4.7839,23.407 5.1259,22.017 C5.4669,20.626 6.0229,18.961 6.7939,17.021 C7.5649,15.081 8.5289,13.091 9.6849,11.05 C10.8409,9.009 12.2159,6.977 13.8079,4.955 L3.6659,4.955 C2.6039,4.955 1.8109,4.762 1.2869,4.377 C0.7619,3.991 0.4999,3.388 0.4999,2.566 C0.4999,1.694 0.7779,1.132 1.3339,0.879 C1.8899,0.626 2.6679,0.5 3.6659,0.5 L3.6659,0.5 Z" id="Stroke-3" stroke="#092933" stroke-linejoin="round"/><path d="M8.7576,26.4027 C8.2506,26.8617 7.8476,27.0007 7.1726,27.0007 C6.5476,27.0007 6.0646,26.7937 5.6926,26.3667 C5.3776,26.0057 5.1976,25.4687 5.1406,24.7827 C5.1256,24.9707 5.1136,25.1537 5.1136,25.3147 C5.1136,26.2357 5.3086,26.9257 5.6926,27.3667 C6.0646,27.7937 6.5476,28.0007 7.1726,28.0007 C7.8476,28.0007 8.3656,27.8047 8.7576,27.4027 C9.1746,26.9747 9.5096,26.1567 9.7536,24.9677 C9.8636,24.4337 9.9926,23.6557 10.1476,22.5897 C10.1476,22.5897 9.5336,25.8567 8.7576,26.4027" fill="#332E09" id="Fill-5" opacity="0.203766325"/><path d="M3.8504,1.9994 L14.1634,1.9994" id="Stroke-7" stroke="#FFFFFF" stroke-dasharray="1,2,6,2,3" stroke-linecap="round" stroke-linejoin="round"/></g></g></g></svg>