<?xml version="1.0" ?><svg height="32px" version="1.1" viewBox="0 0 32 32" width="32px" xmlns="http://www.w3.org/2000/svg" xmlns:xlink="http://www.w3.org/1999/xlink"><title/><desc/><defs/><g fill="none" fill-rule="evenodd" id="Page-1" stroke="none" stroke-width="1"><g id="number-8"><g id="Page-1" transform="translate(6.000000, 2.000000)"><path d="M10.132,4.0653 C8.962,4.0653 8.02,4.4293 7.304,5.1573 C6.588,5.8853 6.231,6.8213 6.231,7.9663 C6.231,9.0243 6.598,9.9053 7.332,10.6083 C8.066,11.3113 9.012,11.6623 10.169,11.6623 C10.754,11.6623 11.286,11.5693 11.765,11.3823 C12.244,11.1963 12.655,10.9373 12.997,10.6083 C13.34,10.2783 13.604,9.8863 13.791,9.4323 C13.977,8.9773 14.071,8.4773 14.071,7.9293 C14.071,7.1953 13.906,6.5353 13.576,5.9503 C13.246,5.3653 12.783,4.9053 12.185,4.5693 C11.588,4.2333 10.904,4.0653 10.132,4.0653 M14.799,20.0063 C14.799,19.0363 14.6,18.1893 14.201,17.4683 C13.803,16.7463 13.243,16.1923 12.521,15.8063 C11.8,15.4213 10.991,15.2283 10.095,15.2283 C8.825,15.2283 7.761,15.6513 6.903,16.4973 C6.044,17.3433 5.615,18.5253 5.615,20.0443 C5.615,21.0143 5.817,21.8703 6.221,22.6103 C6.626,23.3513 7.176,23.9233 7.873,24.3283 C8.57,24.7323 9.348,24.9343 10.207,24.9343 C11.078,24.9343 11.862,24.7293 12.559,24.3183 C13.256,23.9083 13.803,23.3293 14.201,22.5823 C14.6,21.8363 14.799,20.9773 14.799,20.0063 M1.415,7.6493 C1.415,6.4053 1.754,5.2323 2.432,4.1303 C3.11,3.0293 4.106,2.1493 5.419,1.4893 C6.732,0.8293 8.265,0.5003 10.02,0.5003 C11.501,0.5003 12.801,0.6933 13.921,1.0783 C15.041,1.4643 15.975,1.9963 16.721,2.6743 C17.468,3.3533 18.022,4.1183 18.383,4.9703 C18.744,5.8233 18.924,6.7283 18.924,7.6863 C18.924,8.9063 18.61,9.9953 17.981,10.9533 C17.353,11.9113 16.416,12.6953 15.172,13.3053 C16.23,13.7163 17.107,14.2543 17.804,14.9203 C18.501,15.5853 19.027,16.3573 19.381,17.2343 C19.736,18.1123 19.913,19.0853 19.913,20.1563 C19.913,21.7243 19.534,23.1453 18.775,24.4213 C18.016,25.6973 16.902,26.6953 15.433,27.4173 C13.965,28.1393 12.235,28.5003 10.244,28.5003 C8.178,28.5003 6.411,28.1393 4.943,27.4173 C3.474,26.6953 2.367,25.7033 1.62,24.4403 C0.873,23.1773 0.5,21.7613 0.5,20.1933 C0.5,16.8453 2.08,14.5493 5.241,13.3053 C2.69,12.1103 1.415,10.2253 1.415,7.6493" fill="#2FBBF4" id="Fill-1"/><path d="M10.132,4.0653 C8.962,4.0653 8.02,4.4293 7.304,5.1573 C6.588,5.8853 6.231,6.8213 6.231,7.9663 C6.231,9.0243 6.598,9.9053 7.332,10.6083 C8.066,11.3113 9.012,11.6623 10.169,11.6623 C10.754,11.6623 11.286,11.5693 11.765,11.3823 C12.244,11.1963 12.655,10.9373 12.997,10.6083 C13.34,10.2783 13.604,9.8863 13.791,9.4323 C13.977,8.9773 14.071,8.4773 14.071,7.9293 C14.071,7.1953 13.906,6.5353 13.576,5.9503 C13.246,5.3653 12.783,4.9053 12.185,4.5693 C11.588,4.2333 10.904,4.0653 10.132,4.0653 L10.132,4.0653 Z M14.799,20.0063 C14.799,19.0363 14.6,18.1893 14.201,17.4683 C13.803,16.7463 13.243,16.1923 12.521,15.8063 C11.8,15.4213 10.991,15.2283 10.095,15.2283 C8.825,15.2283 7.761,15.6513 6.903,16.4973 C6.044,17.3433 5.615,18.5253 5.615,20.0443 C5.615,21.0143 5.817,21.8703 6.221,22.6103 C6.626,23.3513 7.176,23.9233 7.873,24.3283 C8.57,24.7323 9.348,24.9343 10.207,24.9343 C11.078,24.9343 11.862,24.7293 12.559,24.3183 C13.256,23.9083 13.803,23.3293 14.201,22.5823 C14.6,21.8363 14.799,20.9773 14.799,20.0063 L14.799,20.0063 Z M1.415,7.6493 C1.415,6.4053 1.754,5.2323 2.432,4.1303 C3.11,3.0293 4.106,2.1493 5.419,1.4893 C6.732,0.8293 8.265,0.5003 10.02,0.5003 C11.501,0.5003 12.801,0.6933 13.921,1.0783 C15.041,1.4643 15.975,1.9963 16.721,2.6743 C17.468,3.3533 18.022,4.1183 18.383,4.9703 C18.744,5.8233 18.924,6.7283 18.924,7.6863 C18.924,8.9063 18.61,9.9953 17.981,10.9533 C17.353,11.9113 16.416,12.6953 15.172,13.3053 C16.23,13.7163 17.107,14.2543 17.804,14.9203 C18.501,15.5853 19.027,16.3573 19.381,17.2343 C19.736,18.1123 19.913,19.0853 19.913,20.1563 C19.913,21.7243 19.534,23.1453 18.775,24.4213 C18.016,25.6973 16.902,26.6953 15.433,27.4173 C13.965,28.1393 12.235,28.5003 10.244,28.5003 C8.178,28.5003 6.411,28.1393 4.943,27.4173 C3.474,26.6953 2.367,25.7033 1.62,24.4403 C0.873,23.1773 0.5,21.7613 0.5,20.1933 C0.5,16.8453 2.08,14.5493 5.241,13.3053 C2.69,12.1103 1.415,10.2253 1.415,7.6493 L1.415,7.6493 Z" id="Stroke-3" stroke="#092933" stroke-linejoin="round"/><path d="M3.7095,4.917 C4.2445,4.049 5.0225,3.366 6.0915,2.83 C7.1885,2.279 8.5095,2 10.0205,2" id="Stroke-5" stroke="#FFFFFF" stroke-dasharray="1,2,6,2,3" stroke-linecap="round" stroke-linejoin="round"/><path d="M19.3879,19.561 C19.3269,20.872 18.9869,22.086 18.3449,23.165 C17.6399,24.351 16.5869,25.293 15.2129,25.968 C13.8199,26.653 12.1479,27 10.2439,27 C8.2659,27 6.5559,26.653 5.1639,25.968 C3.7909,25.294 2.7429,24.357 2.0499,23.186 C1.4339,22.141 1.1019,20.963 1.0299,19.688 C1.0209,19.857 0.9999,20.018 0.9999,20.193 C0.9999,21.663 1.3539,23.006 2.0499,24.186 C2.7429,25.357 3.7909,26.294 5.1639,26.968 C6.5559,27.653 8.2659,28 10.2439,28 C12.1479,28 13.8199,27.653 15.2129,26.968 C16.5869,26.293 17.6399,25.351 18.3449,24.165 C19.0539,22.975 19.4129,21.626 19.4129,20.156 C19.4129,19.954 19.4019,19.757 19.3879,19.561" fill="#332E09" id="Fill-7" opacity="0.203766325"/></g></g></g></svg>