<?xml version="1.0" ?><svg height="32px" version="1.1" viewBox="0 0 32 32" width="32px" xmlns="http://www.w3.org/2000/svg" xmlns:xlink="http://www.w3.org/1999/xlink"><title/><desc/><defs/><g fill="none" fill-rule="evenodd" id="Page-1" stroke="none" stroke-width="1"><g id="number-9"><g id="Page-1" transform="translate(6.000000, 2.000000)"><path d="M13.7617,12.7991 C13.3197,13.5721 12.7457,14.1601 12.0417,14.5651 C11.3377,14.9701 10.5997,15.1731 9.8267,15.1731 C8.5687,15.1731 7.5277,14.6811 6.7057,13.6961 C5.8837,12.7121 5.4717,11.3911 5.4717,9.7341 C5.4717,8.0641 5.8837,6.7211 6.7057,5.7051 C7.5277,4.6901 8.5307,4.1821 9.7147,4.1821 C10.4007,4.1821 11.0327,4.3321 11.6117,4.6311 C12.1917,4.9301 12.6897,5.3411 13.1077,5.8641 C13.5247,6.3881 13.8487,7.0081 14.0797,7.7241 C14.3097,8.4411 14.4257,9.2231 14.4257,10.0701 C14.4257,11.1171 14.2037,12.0261 13.7617,12.7991 M19.3597,8.1451 C18.8987,6.4501 18.2387,5.0451 17.3787,3.9301 C16.5187,2.8151 15.4597,1.9641 14.2007,1.3781 C12.9427,0.7931 11.5097,0.5001 9.9017,0.5001 C8.5067,0.5001 7.2317,0.7371 6.0797,1.2101 C4.9267,1.6841 3.9327,2.3441 3.0977,3.1921 C2.2637,4.0391 1.6217,5.0391 1.1727,6.1921 C0.7247,7.3441 0.4997,8.5621 0.4997,9.8461 C0.4997,11.0421 0.6997,12.1851 1.0977,13.2761 C1.4967,14.3661 2.0667,15.3191 2.8087,16.1351 C3.5497,16.9521 4.4287,17.5871 5.4437,18.0421 C6.4597,18.4971 7.5527,18.7241 8.7247,18.7241 C9.9577,18.7241 11.0827,18.4781 12.0977,17.9861 C13.1137,17.4941 14.0327,16.7621 14.8547,15.7901 C14.6807,19.1671 14.1447,21.5221 13.2477,22.8551 C12.7987,23.5151 12.2567,24.0261 11.6217,24.3881 C10.9857,24.7491 10.3127,24.9301 9.6027,24.9301 C8.8057,24.9301 8.0887,24.7021 7.4537,24.2481 C6.8177,23.7931 6.3627,23.1921 6.0887,22.4441 C5.8647,21.8331 5.5347,21.3751 5.0977,21.0701 C4.6617,20.7651 4.1697,20.6121 3.6217,20.6121 C3.0237,20.6121 2.5307,20.8181 2.1447,21.2291 C1.7587,21.6401 1.5657,22.1071 1.5657,22.6311 C1.5657,23.4781 1.8767,24.3601 2.4997,25.2761 C3.1227,26.1921 4.0327,26.9581 5.2287,27.5751 C6.4257,28.1921 7.8337,28.5001 9.4537,28.5001 C11.0977,28.5001 12.5687,28.1981 13.8647,27.5931 C15.1607,26.9891 16.2727,26.0671 17.2007,24.8271 C18.1297,23.5871 18.8367,22.0541 19.3227,20.2291 C19.8087,18.4031 20.0517,16.2941 20.0517,13.9021 C20.0517,11.7581 19.8207,9.8391 19.3597,8.1451" fill="#2FBBF4" id="Fill-1"/><path d="M13.7617,12.7991 C13.3197,13.5721 12.7457,14.1601 12.0417,14.5651 C11.3377,14.9701 10.5997,15.1731 9.8267,15.1731 C8.5687,15.1731 7.5277,14.6811 6.7057,13.6961 C5.8837,12.7121 5.4717,11.3911 5.4717,9.7341 C5.4717,8.0641 5.8837,6.7211 6.7057,5.7051 C7.5277,4.6901 8.5307,4.1821 9.7147,4.1821 C10.4007,4.1821 11.0327,4.3321 11.6117,4.6311 C12.1917,4.9301 12.6897,5.3411 13.1077,5.8641 C13.5247,6.3881 13.8487,7.0081 14.0797,7.7241 C14.3097,8.4411 14.4257,9.2231 14.4257,10.0701 C14.4257,11.1171 14.2037,12.0261 13.7617,12.7991 L13.7617,12.7991 Z M19.3597,8.1451 C18.8987,6.4501 18.2387,5.0451 17.3787,3.9301 C16.5187,2.8151 15.4597,1.9641 14.2007,1.3781 C12.9427,0.7931 11.5097,0.5001 9.9017,0.5001 C8.5067,0.5001 7.2317,0.7371 6.0797,1.2101 C4.9267,1.6841 3.9327,2.3441 3.0977,3.1921 C2.2637,4.0391 1.6217,5.0391 1.1727,6.1921 C0.7247,7.3441 0.4997,8.5621 0.4997,9.8461 C0.4997,11.0421 0.6997,12.1851 1.0977,13.2761 C1.4967,14.3661 2.0667,15.3191 2.8087,16.1351 C3.5497,16.9521 4.4287,17.5871 5.4437,18.0421 C6.4597,18.4971 7.5527,18.7241 8.7247,18.7241 C9.9577,18.7241 11.0827,18.4781 12.0977,17.9861 C13.1137,17.4941 14.0327,16.7621 14.8547,15.7901 C14.6807,19.1671 14.1447,21.5221 13.2477,22.8551 C12.7987,23.5151 12.2567,24.0261 11.6217,24.3881 C10.9857,24.7491 10.3127,24.9301 9.6027,24.9301 C8.8057,24.9301 8.0887,24.7021 7.4537,24.2481 C6.8177,23.7931 6.3627,23.1921 6.0887,22.4441 C5.8647,21.8331 5.5347,21.3751 5.0977,21.0701 C4.6617,20.7651 4.1697,20.6121 3.6217,20.6121 C3.0237,20.6121 2.5307,20.8181 2.1447,21.2291 C1.7587,21.6401 1.5657,22.1071 1.5657,22.6311 C1.5657,23.4781 1.8767,24.3601 2.4997,25.2761 C3.1227,26.1921 4.0327,26.9581 5.2287,27.5751 C6.4257,28.1921 7.8337,28.5001 9.4537,28.5001 C11.0977,28.5001 12.5687,28.1981 13.8647,27.5931 C15.1607,26.9891 16.2727,26.0671 17.2007,24.8271 C18.1297,23.5871 18.8367,22.0541 19.3227,20.2291 C19.8087,18.4031 20.0517,16.2941 20.0517,13.9021 C20.0517,11.7581 19.8207,9.8391 19.3597,8.1451 L19.3597,8.1451 Z" id="Stroke-3" stroke="#092933" stroke-linejoin="round"/><path d="M4.1667,4.2441 C4.8547,3.5461 5.6907,2.9911 6.6497,2.5981 C7.6147,2.2011 8.7087,2.0001 9.9017,2.0001" id="Stroke-5" stroke="#FFFFFF" stroke-dasharray="1,2,6,2,3" stroke-linecap="round" stroke-linejoin="round"/><path d="M19.538,13.415 C19.505,15.541 19.276,17.458 18.839,19.1 C18.372,20.855 17.686,22.345 16.801,23.527 C15.927,24.694 14.868,25.574 13.653,26.141 C12.431,26.711 11.018,27 9.453,27 C7.922,27 6.577,26.708 5.458,26.131 C4.343,25.556 3.487,24.837 2.914,23.994 C2.499,23.385 2.238,22.794 2.128,22.229 C2.091,22.358 2.066,22.491 2.066,22.631 C2.066,23.372 2.351,24.167 2.914,24.994 C3.487,25.837 4.343,26.556 5.458,27.131 C6.577,27.708 7.922,28 9.453,28 C11.018,28 12.431,27.711 13.653,27.141 C14.868,26.574 15.927,25.694 16.801,24.527 C17.686,23.345 18.372,21.855 18.839,20.1 C19.312,18.324 19.551,16.239 19.551,13.901 C19.551,13.735 19.541,13.579 19.538,13.415" fill="#332E09" id="Fill-7" opacity="0.203766325"/></g></g></g></svg>